<?xml version="1.0" standalone="no"?>
<!DOCTYPE svg PUBLIC "-//W3C//DTD SVG 20010904//EN"
 "http://www.w3.org/TR/2001/REC-SVG-20010904/DTD/svg10.dtd">
<svg version="1.0" xmlns="http://www.w3.org/2000/svg"
 width="768.000000pt" height="768.000000pt" viewBox="0 0 768.000000 768.000000"
 preserveAspectRatio="xMidYMid meet">
<metadata>
Created by potrace 1.14, written by Peter Selinger 2001-2017
</metadata>
<g transform="translate(0.000000,768.000000) scale(0.100000,-0.100000)"
fill="#000000" stroke="none">
<path d="M3560 7217 c-3 -3 -34 -7 -70 -11 -36 -3 -78 -8 -95 -11 -16 -2 -52
-6 -80 -9 -62 -7 -275 -50 -352 -72 -122 -33 -259 -76 -288 -89 -16 -7 -61
-25 -100 -40 -120 -47 -294 -129 -375 -175 -243 -141 -341 -209 -595 -413 -44
-35 -261 -250 -314 -311 -81 -93 -202 -250 -276 -356 -43 -63 -83 -119 -88
-125 -26 -30 -197 -381 -247 -505 -98 -247 -175 -538 -204 -770 -2 -19 -7 -58
-11 -87 -18 -143 -23 -255 -19 -423 2 -102 5 -198 8 -215 2 -16 7 -64 11 -105
17 -189 81 -489 142 -670 168 -501 445 -956 803 -1319 87 -88 250 -236 310
-281 19 -14 38 -30 44 -35 6 -6 27 -22 46 -35 19 -13 37 -27 40 -30 11 -14
220 -147 309 -197 254 -144 545 -259 866 -342 104 -28 346 -72 356 -65 4 2 27
0 51 -5 57 -13 253 -25 403 -25 132 0 374 11 396 18 8 3 34 7 59 10 205 23
540 113 790 211 321 126 646 318 918 542 111 92 323 303 410 408 41 50 93 112
115 139 142 169 334 502 444 770 66 161 155 450 180 585 2 14 6 27 8 31 2 3 8
42 14 86 6 44 14 98 17 119 24 177 32 312 28 505 -3 107 -6 209 -8 225 -2 17
-7 55 -10 85 -4 30 -8 66 -11 80 -2 14 -7 41 -9 60 -3 19 -7 44 -10 55 -2 11
-7 40 -12 65 -4 25 -8 47 -9 50 -2 10 -18 85 -20 90 0 3 -7 30 -14 60 -57 240
-192 575 -329 815 -80 139 -237 377 -287 431 -5 6 -30 36 -55 65 -172 206
-390 411 -605 570 -33 24 -62 47 -65 50 -8 10 -140 94 -234 148 -136 80 -268
143 -426 205 -80 32 -155 61 -168 67 -18 7 -211 65 -282 85 -45 12 -249 53
-289 58 -63 8 -122 17 -146 23 -26 6 -659 16 -665 10z"/>
</g>
</svg>
